<?xml version="1.0" encoding="UTF-8"?>
<svg id="D-6" xmlns="http://www.w3.org/2000/svg" width="602" height="602" viewBox="0 0 602 602">
  <rect x="1" y="1" width="600" height="600" rx="30" ry="30" fill="#fff"/>
  <rect x=".5" y=".5" width="601" height="601" rx="30.5" ry="30.5" fill="none" stroke="#000"/>
  <rect x="7" y="7" width="588" height="588" rx="24" ry="24" fill="#039"/>
  <g>
    <polygon points="301 11 11 511 591 511 301 11" fill="#fff"/>
    <g>
      <g>
        <circle cx="301" cy="121" r="24"/>
        <path d="M301.91,150.19l-38.17,84.5-54.37,54.98,12.66,24.41,70.01-69.29,9.49,63.92-46.6,65.63-30.97,92.7-32.88,6.45.04,9.68,60.17,10.88,32.36-100.21,39.62-47.14,73.72,123.12-20.94,16.69v9.46h20.01l37.63-21.64-74.94-154.44,2.73-8.84-9.29-59.94-.38-32.87,24.6,29.57v86.01l24.32-14v-86.44l-51.47-67.13-47.36-16.08h0v.02Z" fill-rule="evenodd"/>
      </g>
      <path d="M89.2,409.25l-12.61,21.72h148.95l7.18-21.72H89.2ZM287.84,409.25l-6.95,21.72h79.83l-12.88-21.72h-60.01.01ZM413.22,409.25l11,21.72h101.18l-12.04-21.72h-100.15,0Z" fill-rule="evenodd"/>
    </g>
  </g>
</svg>